<svg width="73" height="52" viewBox="0 0 73 52" fill="none" xmlns="http://www.w3.org/2000/svg">
<path d="M65.3438 51H7.65625C3.99531 51 1 48.1875 1 44.75V7.25C1 3.8125 3.99531 1 7.65625 1H65.3438C69.0047 1 72 3.8125 72 7.25V44.75C72 48.1875 69.0047 51 65.3438 51Z" stroke="white" stroke-opacity="0.6" stroke-miterlimit="10"/>
<path d="M50.5797 51.5V41.9C50.5797 38.6 47.7002 36 44.0455 36H30.5342C26.8795 36 24 38.6 24 41.9V51.5H50.5797Z" fill="#167DFF"/>
<path d="M36.5342 31.8C40.1423 31.8 43.0683 29.1585 43.0683 25.9C43.0683 22.6415 40.1423 20 36.5342 20C32.9249 20 30 22.6415 30 25.9C30 29.1585 32.9249 31.8 36.5342 31.8Z" fill="#167DFF"/>
<path d="M15.6998 4.21C15.8198 4.17 16.1465 4.12667 16.6798 4.08C17.2132 4.02667 17.6965 4 18.1298 4C18.5698 4 18.9098 4.02 19.1498 4.06C19.1565 4.08667 19.1598 4.12 19.1598 4.16C19.1598 4.19333 19.1398 4.27667 19.0998 4.41C19.0665 4.54333 19.0398 4.63 19.0198 4.67C18.9665 4.72333 18.8165 4.76333 18.5698 4.79L20.4798 10.32L21.4298 10.4C21.4298 10.5867 21.3732 10.7867 21.2598 11H18.9598L18.9298 10.65C19.0832 10.57 19.3065 10.5 19.5998 10.44L19.0898 9.01H16.2998L15.8298 10.32L16.6398 10.4C16.6398 10.5867 16.5832 10.7867 16.4698 11H14.1698L14.1398 10.65C14.3998 10.5567 14.6765 10.4833 14.9698 10.43L16.9098 4.76C16.3165 4.69333 15.8998 4.61333 15.6598 4.52L15.6998 4.21ZM18.2998 6.78L17.7698 4.82C17.7298 4.81333 17.6732 4.81 17.5998 4.81L17.0598 6.85L16.4798 8.37H18.9098L18.2998 6.78ZM30.3501 7.34C30.3501 8.84667 30.0067 9.87 29.3201 10.41C29.0334 10.6367 28.7234 10.7933 28.3901 10.88C28.0567 10.96 27.6201 11 27.0801 11H24.5401L24.5101 10.65C24.5367 10.63 24.6734 10.5867 24.9201 10.52C25.1667 10.4533 25.3134 10.42 25.3601 10.42C25.3201 7.82 25.2867 5.88667 25.2601 4.62C24.9601 4.58 24.6667 4.5 24.3801 4.38C24.3934 4.15333 24.4101 4.02667 24.4301 4H26.9501C27.6434 4 28.1901 4.06333 28.5901 4.19C28.9967 4.31667 29.3501 4.55 29.6501 4.89C30.1167 5.40333 30.3501 6.22 30.3501 7.34ZM29.3801 7.42C29.3801 6.52 29.2101 5.84333 28.8701 5.39C28.5367 4.93 27.9734 4.7 27.1801 4.7H26.1601C26.1334 5.92667 26.1001 7.8 26.0601 10.32H27.1101C28.0234 10.32 28.6301 10.1167 28.9301 9.71C29.2301 9.29667 29.3801 8.53333 29.3801 7.42ZM40.9577 4.69L42.0077 10.32L42.9177 10.41C42.9177 10.59 42.861 10.7867 42.7477 11H40.4477L40.4177 10.65C40.6177 10.5633 40.8643 10.4933 41.1577 10.44L40.0877 4.83L38.7677 10.52H37.7777L35.9577 4.81L35.1477 10.32L35.9977 10.4C35.9977 10.5867 35.941 10.7867 35.8277 11H33.5277L33.4977 10.65C33.791 10.5433 34.0843 10.4633 34.3777 10.41L35.2577 4.61C34.851 4.55 34.5277 4.48 34.2877 4.4L34.3277 4H36.6577L38.2477 9.48H38.2877L39.5277 4H41.7577C41.871 4.21333 41.9277 4.42 41.9277 4.62C41.4943 4.66667 41.171 4.69 40.9577 4.69ZM48.1021 4.64L48.0021 10.32L48.8421 10.4C48.8421 10.5867 48.7854 10.7867 48.6721 11H46.3721L46.3421 10.65C46.6488 10.5433 46.9521 10.4633 47.2521 10.41C47.2388 9.97667 47.2154 9.08333 47.1821 7.73C47.1554 6.37667 47.1321 5.33 47.1121 4.59C46.8454 4.53667 46.5454 4.45667 46.2121 4.35L46.2421 4H48.7421C48.8554 4.21333 48.9121 4.41333 48.9121 4.6C48.5721 4.62667 48.3021 4.64 48.1021 4.64ZM54.2386 5.24L54.1386 10.32L54.9786 10.4C54.9786 10.5867 54.9219 10.7867 54.8086 11H52.5086L52.4786 10.65C52.8386 10.53 53.1453 10.45 53.3986 10.41C53.3853 9.97667 53.3619 9.08333 53.3286 7.73C53.3019 6.37667 53.2786 5.33 53.2586 4.59C53.0053 4.55 52.7053 4.47 52.3586 4.35L52.3886 4H54.3686L58.0186 9.83L57.8486 4.59C57.6019 4.54333 57.3053 4.46333 56.9586 4.35L56.9886 4H59.4886C59.6019 4.21333 59.6586 4.41333 59.6586 4.6C59.3253 4.62667 59.0586 4.64 58.8586 4.64L58.7586 11H57.7886L54.2386 5.24Z" fill="#4669E4"/>
</svg>
