<svg width="98" height="128" viewBox="0 0 98 128" fill="none" xmlns="http://www.w3.org/2000/svg">
<g style="mix-blend-mode:hard-light">
<path d="M4 0.5H94C95.933 0.5 97.5 2.067 97.5 4V124C97.5 125.933 95.933 127.5 94 127.5H4C2.067 127.5 0.5 125.933 0.5 124V4C0.5 2.067 2.067 0.5 4 0.5Z" fill="#4EC5F9" stroke="#D1F97D"/>
<rect x="2.80591" y="32.2598" width="93.5412" height="7.66165" rx="3.83083" fill="#FDE0E0" stroke="#D1F97D"/>
<rect x="2.80591" y="50.5454" width="93.5412" height="7.66165" rx="3.83083" fill="#FDE0E0" stroke="#D1F97D"/>
<rect x="2.80591" y="67.8682" width="93.5412" height="7.66165" rx="3.83083" fill="#FDE0E0" stroke="#D1F97D"/>
<rect x="2.5" y="85.5" width="93.5412" height="7.66165" rx="3.83083" fill="#FDE0E0" stroke="#D1F97D"/>
<rect x="2.5" y="103.5" width="93.5412" height="7.66165" rx="3.83083" fill="#FDE0E0" stroke="#D1F97D"/>
<path d="M37.9157 14.166L39.3857 22.048L40.6597 22.174C40.6597 22.426 40.5804 22.7013 40.4217 23H37.2017L37.1597 22.51C37.4397 22.3887 37.7851 22.2907 38.1957 22.216L36.6977 14.362L34.8497 22.328H33.4637L30.9157 14.334L29.7817 22.048L30.9717 22.16C30.9717 22.4213 30.8924 22.7013 30.7337 23H27.5137L27.4717 22.51C27.8824 22.3607 28.2931 22.2487 28.7037 22.174L29.9357 14.054C29.3664 13.97 28.9137 13.872 28.5777 13.76L28.6337 13.2H31.8957L34.1217 20.872H34.1777L35.9137 13.2H39.0357C39.1944 13.4987 39.2737 13.788 39.2737 14.068C38.6671 14.1333 38.2144 14.166 37.9157 14.166ZM43.9172 14.166L43.8472 17.54H46.0592L46.1712 16.532C46.4326 16.532 46.7126 16.6113 47.0112 16.77V19.43L46.5212 19.472C46.3812 19.0707 46.2879 18.7347 46.2412 18.464H43.8472C43.8286 19.276 43.8099 20.4753 43.7912 22.062H46.9972L47.3332 20.746L48.1452 20.802C48.2759 21.334 48.3412 21.8053 48.3412 22.216C48.3412 22.6173 48.3319 22.8787 48.3132 23H41.5092L41.4672 22.51C41.8779 22.3607 42.2746 22.2533 42.6572 22.188C42.6012 18.548 42.5546 15.8413 42.5172 14.068C42.3119 14.0493 41.9012 13.9373 41.2852 13.732L41.3552 13.2H48.1032C48.1219 13.3213 48.1312 13.508 48.1312 13.76C48.1312 14.2733 48.0659 14.8287 47.9352 15.426C47.7299 15.4727 47.4592 15.496 47.1232 15.496L46.7872 14.166H43.9172ZM52.2434 14.936L52.1034 22.048L53.2794 22.16C53.2794 22.4213 53.2001 22.7013 53.0414 23H49.8214L49.7794 22.51C50.2834 22.342 50.7127 22.23 51.0674 22.174C51.0487 21.5673 51.0161 20.3167 50.9694 18.422C50.9321 16.5273 50.8994 15.062 50.8714 14.026C50.5167 13.97 50.0967 13.858 49.6114 13.69L49.6534 13.2H52.4254L57.5354 21.362L57.2974 14.026C56.9521 13.9607 56.5367 13.8487 56.0514 13.69L56.0934 13.2H59.5934C59.7521 13.4987 59.8314 13.7787 59.8314 14.04C59.3647 14.0773 58.9914 14.096 58.7114 14.096L58.5714 23H57.2134L52.2434 14.936ZM65.6156 23.168C65.0836 23.168 64.6216 23.126 64.2296 23.042C63.8376 22.958 63.4596 22.804 63.0956 22.58C62.3396 22.132 61.9476 21.2407 61.9196 19.906C61.9009 18.5713 61.8543 16.6113 61.7796 14.026C61.4063 13.9513 60.9863 13.8393 60.5196 13.69L60.5616 13.2H64.0756C64.2343 13.4987 64.3136 13.7787 64.3136 14.04C64.0429 14.0587 63.6556 14.0773 63.1516 14.096C63.1329 15.1787 63.1236 16.8027 63.1236 18.968C63.1236 20.1347 63.3383 20.9467 63.7676 21.404C64.2063 21.8613 64.8269 22.09 65.6296 22.09C65.9749 22.09 66.2736 22.0527 66.5256 21.978C66.7869 21.9033 67.0436 21.7587 67.2956 21.544C67.7996 21.1147 68.0516 20.2467 68.0516 18.94C68.0516 18.9307 68.0096 17.316 67.9256 14.096C67.1976 13.8813 66.7776 13.746 66.6656 13.69L66.7076 13.2H70.1796C70.3289 13.5827 70.4036 13.858 70.4036 14.026C69.8156 14.026 69.4376 14.0307 69.2696 14.04C69.2509 14.7867 69.2276 15.846 69.1996 17.218C69.1809 18.5807 69.1669 19.4767 69.1576 19.906C69.1296 20.97 68.8029 21.782 68.1776 22.342C67.5523 22.8927 66.6983 23.168 65.6156 23.168Z" fill="black"/>
<path d="M37.9157 14.166V13.166H36.712L36.9327 14.3493L37.9157 14.166ZM39.3857 22.048L38.4027 22.2313L38.5403 22.9693L39.2873 23.0431L39.3857 22.048ZM40.6597 22.174H41.6597V21.268L40.7581 21.1789L40.6597 22.174ZM40.4217 23V24H41.0228L41.3048 23.4692L40.4217 23ZM37.2017 23L36.2054 23.0854L36.2838 24H37.2017V23ZM37.1597 22.51L36.7621 21.5924L36.1019 21.8785L36.1634 22.5954L37.1597 22.51ZM38.1957 22.216L38.3746 23.1999L39.367 23.0194L39.178 22.0286L38.1957 22.216ZM36.6977 14.362L37.68 14.1746L35.7236 14.136L36.6977 14.362ZM34.8497 22.328V23.328H35.6443L35.8239 22.554L34.8497 22.328ZM33.4637 22.328L32.5109 22.6317L32.7329 23.328H33.4637V22.328ZM30.9157 14.334L31.8685 14.0303L29.9264 14.1886L30.9157 14.334ZM29.7817 22.048L28.7924 21.9026L28.6391 22.9449L29.688 23.0436L29.7817 22.048ZM30.9717 22.16H31.9717V21.2497L31.0654 21.1644L30.9717 22.16ZM30.7337 23V24H31.3348L31.6168 23.4692L30.7337 23ZM27.5137 23L26.5174 23.0854L26.5958 24H27.5137V23ZM27.4717 22.51L27.13 21.5702L26.4099 21.832L26.4754 22.5954L27.4717 22.51ZM28.7037 22.174L28.8826 23.1579L29.5853 23.0301L29.6924 22.324L28.7037 22.174ZM29.9357 14.054L30.9244 14.204L31.075 13.2113L30.0817 13.0647L29.9357 14.054ZM28.5777 13.76L27.5827 13.6605L27.5031 14.4559L28.2615 14.7087L28.5777 13.76ZM28.6337 13.2V12.2H27.7287L27.6387 13.1005L28.6337 13.2ZM31.8957 13.2L32.8561 12.9213L32.6468 12.2H31.8957V13.2ZM34.1217 20.872L33.1613 21.1507L33.3706 21.872H34.1217V20.872ZM34.1777 20.872V21.872H34.9767L35.1531 21.0927L34.1777 20.872ZM35.9137 13.2V12.2H35.1147L34.9384 12.9793L35.9137 13.2ZM39.0357 13.2L39.9188 12.7308L39.6368 12.2H39.0357V13.2ZM39.2737 14.068L39.3808 15.0623L40.2737 14.9661V14.068H39.2737ZM36.9327 14.3493L38.4027 22.2313L40.3688 21.8647L38.8988 13.9827L36.9327 14.3493ZM39.2873 23.0431L40.5613 23.1691L40.7581 21.1789L39.4841 21.0529L39.2873 23.0431ZM39.6597 22.174C39.6597 22.2161 39.6457 22.3293 39.5386 22.5308L41.3048 23.4692C41.5151 23.0734 41.6597 22.6359 41.6597 22.174H39.6597ZM40.4217 22H37.2017V24H40.4217V22ZM38.1981 22.9146L38.1561 22.4246L36.1634 22.5954L36.2054 23.0854L38.1981 22.9146ZM37.5573 23.4276C37.7469 23.3454 38.0137 23.2655 38.3746 23.1999L38.0168 21.2321C37.5564 21.3158 37.1325 21.4319 36.7621 21.5924L37.5573 23.4276ZM39.178 22.0286L37.68 14.1746L35.7154 14.5494L37.2134 22.4034L39.178 22.0286ZM35.7236 14.136L33.8756 22.102L35.8239 22.554L37.6718 14.588L35.7236 14.136ZM34.8497 21.328H33.4637V23.328H34.8497V21.328ZM34.4165 22.0243L31.8685 14.0303L29.9629 14.6377L32.5109 22.6317L34.4165 22.0243ZM29.9264 14.1886L28.7924 21.9026L30.7711 22.1934L31.9051 14.4794L29.9264 14.1886ZM29.688 23.0436L30.878 23.1556L31.0654 21.1644L29.8754 21.0524L29.688 23.0436ZM29.9717 22.16C29.9717 22.2167 29.9544 22.3354 29.8506 22.5308L31.6168 23.4692C31.8304 23.0672 31.9717 22.626 31.9717 22.16H29.9717ZM30.7337 22H27.5137V24H30.7337V22ZM28.5101 22.9146L28.4681 22.4246L26.4754 22.5954L26.5174 23.0854L28.5101 22.9146ZM27.8135 23.4498C28.1736 23.3188 28.5299 23.222 28.8826 23.1579L28.5248 21.1901C28.0562 21.2753 27.5911 21.4025 27.13 21.5702L27.8135 23.4498ZM29.6924 22.324L30.9244 14.204L28.947 13.904L27.715 22.024L29.6924 22.324ZM30.0817 13.0647C29.5392 12.9847 29.1511 12.897 28.8939 12.8113L28.2615 14.7087C28.6763 14.847 29.1936 14.9553 29.7898 15.0433L30.0817 13.0647ZM29.5728 13.8595L29.6288 13.2995L27.6387 13.1005L27.5827 13.6605L29.5728 13.8595ZM28.6337 14.2H31.8957V12.2H28.6337V14.2ZM30.9353 13.4787L33.1613 21.1507L35.0821 20.5933L32.8561 12.9213L30.9353 13.4787ZM34.1217 21.872H34.1777V19.872H34.1217V21.872ZM35.1531 21.0927L36.8891 13.4207L34.9384 12.9793L33.2024 20.6513L35.1531 21.0927ZM35.9137 14.2H39.0357V12.2H35.9137V14.2ZM38.1526 13.6692C38.2503 13.8531 38.2737 13.9823 38.2737 14.068H40.2737C40.2737 13.5937 40.1384 13.1442 39.9188 12.7308L38.1526 13.6692ZM39.1666 13.0737C38.5669 13.1383 38.1583 13.166 37.9157 13.166V15.166C38.2705 15.166 38.7672 15.1283 39.3808 15.0623L39.1666 13.0737ZM43.9172 14.166V13.166H42.9378L42.9174 14.1453L43.9172 14.166ZM43.8472 17.54L42.8474 17.5193L42.8263 18.54H43.8472V17.54ZM46.0592 17.54V18.54H46.9543L47.0531 17.6504L46.0592 17.54ZM46.1712 16.532V15.532H45.2762L45.1774 16.4216L46.1712 16.532ZM47.0112 16.77H48.0112V16.1689L47.4804 15.8869L47.0112 16.77ZM47.0112 19.43L47.0966 20.4263L48.0112 20.348V19.43H47.0112ZM46.5212 19.472L45.577 19.8014L45.8328 20.5347L46.6066 20.4683L46.5212 19.472ZM46.2412 18.464L47.2267 18.2941L47.0836 17.464H46.2412V18.464ZM43.8472 18.464V17.464H42.87L42.8475 18.441L43.8472 18.464ZM43.7912 22.062L42.7913 22.0502L42.7794 23.062H43.7912V22.062ZM46.9972 22.062V23.062H47.774L47.9662 22.3094L46.9972 22.062ZM47.3332 20.746L47.402 19.7484L46.5705 19.691L46.3643 20.4986L47.3332 20.746ZM48.1452 20.802L49.1164 20.5635L48.9423 19.8546L48.214 19.8044L48.1452 20.802ZM48.3132 23V24H49.1712L49.3016 23.1521L48.3132 23ZM41.5092 23L40.5129 23.0854L40.5913 24H41.5092V23ZM41.4672 22.51L41.1255 21.5702L40.4055 21.832L40.4709 22.5954L41.4672 22.51ZM42.6572 22.188L42.8255 23.1737L43.6703 23.0295L43.6571 22.1726L42.6572 22.188ZM42.5172 14.068L43.517 14.047L43.4982 13.1531L42.6078 13.0721L42.5172 14.068ZM41.2852 13.732L40.2938 13.6015L40.1861 14.4197L40.969 14.6807L41.2852 13.732ZM41.3552 13.2V12.2H40.4782L40.3638 13.0695L41.3552 13.2ZM48.1032 13.2L49.0916 13.0479L48.9612 12.2H48.1032V13.2ZM47.9352 15.426L48.1569 16.4011L48.7764 16.2603L48.9121 15.6397L47.9352 15.426ZM47.1232 15.496L46.1537 15.7409L46.3444 16.496H47.1232V15.496ZM46.7872 14.166L47.7568 13.9211L47.566 13.166H46.7872V14.166ZM42.9174 14.1453L42.8474 17.5193L44.847 17.5607L44.917 14.1867L42.9174 14.1453ZM43.8472 18.54H46.0592V16.54H43.8472V18.54ZM47.0531 17.6504L47.1651 16.6424L45.1774 16.4216L45.0654 17.4296L47.0531 17.6504ZM46.1712 17.532C46.2279 17.532 46.3467 17.5493 46.5421 17.6531L47.4804 15.8869C47.0785 15.6734 46.6372 15.532 46.1712 15.532V17.532ZM46.0112 16.77V19.43H48.0112V16.77H46.0112ZM46.9258 18.4337L46.4358 18.4757L46.6066 20.4683L47.0966 20.4263L46.9258 18.4337ZM47.4654 19.1426C47.3349 18.7684 47.2604 18.4897 47.2267 18.2941L45.2558 18.6339C45.3154 18.9797 45.4276 19.373 45.577 19.8014L47.4654 19.1426ZM46.2412 17.464H43.8472V19.464H46.2412V17.464ZM42.8475 18.441C42.8287 19.2588 42.81 20.4626 42.7913 22.0502L44.7912 22.0738C44.8098 20.488 44.8284 19.2932 44.847 18.487L42.8475 18.441ZM43.7912 23.062H46.9972V21.062H43.7912V23.062ZM47.9662 22.3094L48.3022 20.9934L46.3643 20.4986L46.0283 21.8146L47.9662 22.3094ZM47.2644 21.7436L48.0764 21.7996L48.214 19.8044L47.402 19.7484L47.2644 21.7436ZM47.1741 21.0405C47.2915 21.5187 47.3412 21.9073 47.3412 22.216H49.3412C49.3412 21.7034 49.2603 21.1493 49.1164 20.5635L47.1741 21.0405ZM47.3412 22.216C47.3412 22.4103 47.339 22.563 47.3349 22.6773C47.3304 22.8023 47.3247 22.8487 47.3249 22.8479L49.3016 23.1521C49.3341 22.941 49.3412 22.5995 49.3412 22.216H47.3412ZM48.3132 22H41.5092V24H48.3132V22ZM42.5056 22.9146L42.4636 22.4246L40.4709 22.5954L40.5129 23.0854L42.5056 22.9146ZM41.809 23.4498C42.1702 23.3184 42.5088 23.2278 42.8255 23.1737L42.4889 21.2023C42.0404 21.2788 41.5856 21.4029 41.1255 21.5702L41.809 23.4498ZM43.6571 22.1726C43.6011 18.5323 43.5544 15.8233 43.517 14.047L41.5175 14.089C41.5547 15.8594 41.6014 18.5637 41.6574 22.2034L43.6571 22.1726ZM42.6078 13.0721C42.6105 13.0724 42.5885 13.0702 42.5322 13.0583C42.4791 13.047 42.4085 13.0298 42.3184 13.0052C42.1375 12.9559 41.9 12.8828 41.6015 12.7833L40.969 14.6807C41.562 14.8783 42.0851 15.0328 42.4267 15.0639L42.6078 13.0721ZM42.2767 13.8625L42.3467 13.3305L40.3638 13.0695L40.2938 13.6015L42.2767 13.8625ZM41.3552 14.2H48.1032V12.2H41.3552V14.2ZM47.1149 13.3521C47.1214 13.3942 47.1312 13.5176 47.1312 13.76H49.1312C49.1312 13.4984 49.1225 13.2484 49.0916 13.0479L47.1149 13.3521ZM47.1312 13.76C47.1312 14.1894 47.0765 14.6723 46.9583 15.2123L48.9121 15.6397C49.0553 14.9851 49.1312 14.3573 49.1312 13.76H47.1312ZM47.7136 14.4509C47.6108 14.4742 47.4232 14.496 47.1232 14.496V16.496C47.4953 16.496 47.849 16.4711 48.1569 16.4011L47.7136 14.4509ZM48.0928 15.2511L47.7568 13.9211L45.8177 14.4109L46.1537 15.7409L48.0928 15.2511ZM46.7872 13.166H43.9172V15.166H46.7872V13.166ZM52.2434 14.936L53.0947 14.4113L51.3105 11.5164L51.2436 14.9163L52.2434 14.936ZM52.1034 22.048L51.1036 22.0283L51.0853 22.9556L52.0086 23.0435L52.1034 22.048ZM53.2794 22.16H54.2794V21.2507L53.3742 21.1645L53.2794 22.16ZM53.0414 23V24H53.6425L53.9245 23.4692L53.0414 23ZM49.8214 23L48.8251 23.0854L48.9035 24H49.8214V23ZM49.7794 22.51L49.4632 21.5613L48.7158 21.8105L48.7831 22.5954L49.7794 22.51ZM51.0674 22.174L51.2234 23.1618L52.094 23.0243L52.0669 22.1432L51.0674 22.174ZM50.9694 18.422L49.9696 18.4417L49.9697 18.4466L50.9694 18.422ZM50.8714 14.026L51.871 13.999L51.8486 13.1679L51.0274 13.0382L50.8714 14.026ZM49.6114 13.69L48.6151 13.6046L48.5486 14.3803L49.2843 14.635L49.6114 13.69ZM49.6534 13.2V12.2H48.7355L48.6571 13.1146L49.6534 13.2ZM52.4254 13.2L53.273 12.6693L52.9792 12.2H52.4254V13.2ZM57.5354 21.362L56.6878 21.8927L58.6551 25.0349L58.5349 21.3296L57.5354 21.362ZM57.2974 14.026L58.2969 13.9936L58.2709 13.1924L57.4833 13.0434L57.2974 14.026ZM56.0514 13.69L55.0551 13.6046L54.9874 14.3942L55.7407 14.6405L56.0514 13.69ZM56.0934 13.2V12.2H55.1755L55.0971 13.1146L56.0934 13.2ZM59.5934 13.2L60.4765 12.7308L60.1945 12.2H59.5934V13.2ZM59.8314 14.04L59.9112 15.0368L60.8314 14.9632V14.04H59.8314ZM58.7114 14.096V13.096H57.727L57.7115 14.0803L58.7114 14.096ZM58.5714 23V24H59.5558L59.5713 23.0157L58.5714 23ZM57.2134 23L56.3621 23.5247L56.6551 24H57.2134V23ZM51.2436 14.9163L51.1036 22.0283L53.1032 22.0677L53.2432 14.9557L51.2436 14.9163ZM52.0086 23.0435L53.1846 23.1555L53.3742 21.1645L52.1982 21.0525L52.0086 23.0435ZM52.2794 22.16C52.2794 22.2167 52.2621 22.3354 52.1583 22.5308L53.9245 23.4692C54.138 23.0672 54.2794 22.626 54.2794 22.16H52.2794ZM53.0414 22H49.8214V24H53.0414V22ZM50.8178 22.9146L50.7758 22.4246L48.7831 22.5954L48.8251 23.0854L50.8178 22.9146ZM50.0956 23.4587C50.5697 23.3007 50.9422 23.2062 51.2234 23.1618L50.9114 21.1862C50.4833 21.2538 49.9972 21.3833 49.4632 21.5613L50.0956 23.4587ZM52.0669 22.1432C52.0484 21.5402 52.0158 20.2926 51.9691 18.3974L49.9697 18.4466C50.0164 20.3407 50.0491 21.5945 50.0679 22.2048L52.0669 22.1432ZM51.9692 18.4023C51.9319 16.5068 51.8991 15.0386 51.871 13.999L49.8718 14.053C49.8997 15.0854 49.9323 16.5478 49.9696 18.4417L51.9692 18.4023ZM51.0274 13.0382C50.7498 12.9944 50.3898 12.9012 49.9385 12.745L49.2843 14.635C49.8037 14.8148 50.2837 14.9456 50.7154 15.0138L51.0274 13.0382ZM50.6078 13.7754L50.6498 13.2854L48.6571 13.1146L48.6151 13.6046L50.6078 13.7754ZM49.6534 14.2H52.4254V12.2H49.6534V14.2ZM51.5778 13.7307L56.6878 21.8927L58.383 20.8313L53.273 12.6693L51.5778 13.7307ZM58.5349 21.3296L58.2969 13.9936L56.2979 14.0584L56.5359 21.3944L58.5349 21.3296ZM57.4833 13.0434C57.1944 12.9888 56.8231 12.8902 56.3621 12.7395L55.7407 14.6405C56.2503 14.8071 56.7097 14.9326 57.1115 15.0086L57.4833 13.0434ZM57.0478 13.7754L57.0898 13.2854L55.0971 13.1146L55.0551 13.6046L57.0478 13.7754ZM56.0934 14.2H59.5934V12.2H56.0934V14.2ZM58.7103 13.6692C58.8141 13.8646 58.8314 13.9833 58.8314 14.04H60.8314C60.8314 13.574 60.69 13.1328 60.4765 12.7308L58.7103 13.6692ZM59.7517 13.0432C59.2965 13.0796 58.9531 13.096 58.7114 13.096V15.096C59.0297 15.096 59.433 15.0751 59.9112 15.0368L59.7517 13.0432ZM57.7115 14.0803L57.5715 22.9843L59.5713 23.0157L59.7113 14.1117L57.7115 14.0803ZM58.5714 22H57.2134V24H58.5714V22ZM58.0647 22.4753L53.0947 14.4113L51.3921 15.4607L56.3621 23.5247L58.0647 22.4753ZM64.2296 23.042L64.0201 24.0198L64.0201 24.0198L64.2296 23.042ZM63.0956 22.58L63.6197 21.7283L63.6126 21.724L63.6054 21.7197L63.0956 22.58ZM61.9196 19.906L60.9197 19.92L60.9198 19.927L61.9196 19.906ZM61.7796 14.026L62.7792 13.9971L62.7562 13.2015L61.9757 13.0454L61.7796 14.026ZM60.5196 13.69L59.5232 13.6046L59.4551 14.3993L60.2148 14.6424L60.5196 13.69ZM60.5616 13.2V12.2H59.6436L59.5652 13.1146L60.5616 13.2ZM64.0756 13.2L64.9587 12.7308L64.6767 12.2H64.0756V13.2ZM64.3136 14.04L64.3824 15.0376L65.3136 14.9734V14.04H64.3136ZM63.1516 14.096L63.1146 13.0967L62.1681 13.1317L62.1517 14.0788L63.1516 14.096ZM63.7676 21.404L63.0385 22.0885L63.0459 22.0962L63.7676 21.404ZM66.5256 21.978L66.2509 21.0164L66.2415 21.0192L66.5256 21.978ZM67.2956 21.544L66.6471 20.7828L66.6471 20.7828L67.2956 21.544ZM67.9256 14.096L68.9253 14.0699L68.9063 13.3426L68.2084 13.1368L67.9256 14.096ZM66.6656 13.69L65.6692 13.6046L65.6113 14.2809L66.2184 14.5844L66.6656 13.69ZM66.7076 13.2V12.2H65.7896L65.7112 13.1146L66.7076 13.2ZM70.1796 13.2L71.1112 12.8365L70.8628 12.2H70.1796V13.2ZM70.4036 14.026V15.026H71.4036V14.026H70.4036ZM69.2696 14.04L69.2141 13.0415L68.293 13.0927L68.2699 14.015L69.2696 14.04ZM69.1996 17.218L68.1998 17.1976L68.1997 17.2043L69.1996 17.218ZM69.1576 19.906L70.1573 19.9323L70.1574 19.9277L69.1576 19.906ZM68.1776 22.342L68.8385 23.0925L68.8447 23.087L68.1776 22.342ZM65.6156 22.168C65.1327 22.168 64.7441 22.1296 64.4391 22.0642L64.0201 24.0198C64.4991 24.1224 65.0345 24.168 65.6156 24.168V22.168ZM64.4391 22.0642C64.1656 22.0056 63.8932 21.8967 63.6197 21.7283L62.5715 23.4317C63.026 23.7113 63.5096 23.9104 64.0201 24.0198L64.4391 22.0642ZM63.6054 21.7197C63.2809 21.5274 62.9441 21.0655 62.9194 19.885L60.9198 19.927C60.951 21.4159 61.3983 22.7366 62.5858 23.4403L63.6054 21.7197ZM62.9195 19.892C62.9007 18.5497 62.8539 16.5838 62.7792 13.9971L60.78 14.0549C60.8546 16.6389 60.9011 18.5929 60.9197 19.92L62.9195 19.892ZM61.9757 13.0454C61.6478 12.9798 61.2649 12.8785 60.8244 12.7376L60.2148 14.6424C60.7076 14.8001 61.1648 14.9228 61.5835 15.0066L61.9757 13.0454ZM61.5159 13.7754L61.5579 13.2854L59.5652 13.1146L59.5232 13.6046L61.5159 13.7754ZM60.5616 14.2H64.0756V12.2H60.5616V14.2ZM63.1925 13.6692C63.2963 13.8646 63.3136 13.9833 63.3136 14.04H65.3136C65.3136 13.574 65.1722 13.1328 64.9587 12.7308L63.1925 13.6692ZM64.2448 13.0424C63.9901 13.0599 63.6153 13.0781 63.1146 13.0967L63.1886 15.0953C63.6959 15.0765 64.0957 15.0574 64.3824 15.0376L64.2448 13.0424ZM62.1517 14.0788C62.1329 15.1704 62.1236 16.8014 62.1236 18.968H64.1236C64.1236 16.8039 64.1329 15.187 64.1514 14.1132L62.1517 14.0788ZM62.1236 18.968C62.1236 20.1941 62.3365 21.3407 63.0385 22.0884L64.4967 20.7196C64.34 20.5527 64.1236 20.0752 64.1236 18.968H62.1236ZM63.0459 22.0962C63.7205 22.7995 64.6314 23.09 65.6296 23.09V21.09C65.0225 21.09 64.692 20.9232 64.4893 20.7118L63.0459 22.0962ZM65.6296 23.09C66.0428 23.09 66.4418 23.0458 66.8097 22.9368L66.2415 21.0192C66.1054 21.0595 65.907 21.09 65.6296 21.09V23.09ZM66.8003 22.9395C67.2257 22.818 67.6065 22.5928 67.9441 22.3052L66.6471 20.7828C66.4807 20.9245 66.3481 20.9887 66.2509 21.0165L66.8003 22.9395ZM67.9441 22.3052C68.811 21.5667 69.0516 20.2844 69.0516 18.94H67.0516C67.0516 20.209 66.7882 20.6626 66.6471 20.7828L67.9441 22.3052ZM69.0516 18.94C69.0516 18.9133 69.0088 17.2727 68.9253 14.0699L66.9259 14.1221C67.0104 17.3593 67.0516 18.9481 67.0516 18.94H69.0516ZM68.2084 13.1368C67.8476 13.0304 67.5697 12.9456 67.3713 12.8817C67.2718 12.8496 67.1977 12.8245 67.1458 12.8059C67.0821 12.783 67.0834 12.7809 67.1128 12.7956L66.2184 14.5844C66.3563 14.6534 66.5687 14.7244 66.7579 14.7853C66.9795 14.8567 67.2756 14.9469 67.6428 15.0552L68.2084 13.1368ZM67.6619 13.7754L67.7039 13.2854L65.7112 13.1146L65.6692 13.6046L67.6619 13.7754ZM66.7076 14.2H70.1796V12.2H66.7076V14.2ZM69.248 13.5635C69.3148 13.7347 69.3576 13.8634 69.3825 13.9552C69.4103 14.0581 69.4036 14.0707 69.4036 14.026H71.4036C71.4036 13.6492 71.2588 13.2147 71.1112 12.8365L69.248 13.5635ZM70.4036 13.026C69.8233 13.026 69.4154 13.0304 69.2141 13.0415L69.3251 15.0385C69.4598 15.031 69.8078 15.026 70.4036 15.026V13.026ZM68.2699 14.015C68.2512 14.764 68.2278 15.8251 68.1998 17.1976L70.1994 17.2384C70.2274 15.8669 70.2507 14.8094 70.2693 14.065L68.2699 14.015ZM68.1997 17.2043C68.181 18.5678 68.1671 19.4597 68.1578 19.8843L70.1574 19.9277C70.1668 19.4937 70.1808 18.5935 70.1995 17.2317L68.1997 17.2043ZM68.1579 19.8797C68.1351 20.7468 67.879 21.267 67.5105 21.597L68.8447 23.087C69.7268 22.297 70.1241 21.1932 70.1572 19.9323L68.1579 19.8797ZM67.5167 21.5915C67.1231 21.9381 66.5295 22.168 65.6156 22.168V24.168C66.8671 24.168 67.9814 23.8472 68.8385 23.0925L67.5167 21.5915Z" fill="#D1F97D"/>
</g>
</svg>
