<svg width="73" height="53" viewBox="0 0 73 53" fill="none" xmlns="http://www.w3.org/2000/svg">
<path d="M50.5342 31.8C54.1424 31.8 57.0684 29.1585 57.0684 25.9C57.0684 22.6415 54.1424 20 50.5342 20C46.9249 20 44 22.6415 44 25.9C44 29.1585 46.9249 31.8 50.5342 31.8Z" fill="#6B57FF"/>
<path d="M21.5342 31.8C25.1423 31.8 28.0684 29.1585 28.0684 25.9C28.0684 22.6415 25.1423 20 21.5342 20C17.926 20 15 22.6415 15 25.9C15 29.1585 17.926 31.8 21.5342 31.8Z" fill="#FC801D"/>
<path d="M34.5797 51.5001V41.9001C34.5797 38.6 31.7002 36 28.0455 36H14.5342C10.8795 36 8 38.6 8 41.9001V51.5001H34.5797Z" fill="#FC801D"/>
<path d="M64.6904 51.5001V41.9001C64.6904 38.6 61.811 36 58.1563 36H44.5342C40.8795 36 38 38.6 38 41.9001V51.5001H64.6904Z" fill="#6B57FF"/>
<path d="M65.3438 52H7.65625C3.99531 52 1 49.1312 1 45.625V7.375C1 3.86875 3.99531 1 7.65625 1H65.3438C69.0047 1 72 3.86875 72 7.375V45.625C72 49.1312 69.0047 52 65.3438 52Z" stroke="white" stroke-opacity="0.6" stroke-miterlimit="10"/>
<path d="M18.9279 13.12C18.5479 13.12 18.2179 13.09 17.9379 13.03C17.6579 12.97 17.3879 12.86 17.1279 12.7C16.5879 12.38 16.3079 11.7433 16.2879 10.79C16.2745 9.83667 16.2412 8.43667 16.1879 6.59C15.9212 6.53667 15.6212 6.45667 15.2879 6.35L15.3179 6H17.8279C17.9412 6.21333 17.9979 6.41333 17.9979 6.6C17.8045 6.61333 17.5279 6.62667 17.1679 6.64C17.1545 7.41333 17.1479 8.57333 17.1479 10.12C17.1479 10.9533 17.3012 11.5333 17.6079 11.86C17.9212 12.1867 18.3645 12.35 18.9379 12.35C19.1845 12.35 19.3979 12.3233 19.5779 12.27C19.7645 12.2167 19.9479 12.1133 20.1279 11.96C20.4879 11.6533 20.6679 11.0333 20.6679 10.1C20.6679 10.0933 20.6379 8.94 20.5779 6.64C20.0579 6.48667 19.7579 6.39 19.6779 6.35L19.7079 6H22.1879C22.2945 6.27333 22.3479 6.47 22.3479 6.59C21.9279 6.59 21.6579 6.59333 21.5379 6.6C21.5245 7.13333 21.5079 7.89 21.4879 8.87C21.4745 9.84333 21.4645 10.4833 21.4579 10.79C21.4379 11.55 21.2045 12.13 20.7579 12.53C20.3112 12.9233 19.7012 13.12 18.9279 13.12ZM28.0446 12.33C29.0379 12.33 29.5346 11.9267 29.5346 11.12C29.5346 10.7267 29.2912 10.3933 28.8046 10.12C28.5846 9.99333 28.3412 9.87333 28.0746 9.76C27.8146 9.64667 27.5512 9.52333 27.2846 9.39C27.0179 9.25667 26.7746 9.11333 26.5546 8.96C26.3412 8.80667 26.1646 8.61333 26.0246 8.38C25.8912 8.14667 25.8246 7.88333 25.8246 7.59C25.8246 7.11 26.0179 6.70333 26.4046 6.37C26.7979 6.03 27.3346 5.86 28.0146 5.86C28.6946 5.86 29.4112 6.06667 30.1646 6.48C30.1646 6.86 30.1179 7.33667 30.0246 7.91C29.8779 7.93 29.6846 7.94 29.4446 7.94L29.1446 6.78C29.0646 6.74 28.9046 6.7 28.6646 6.66C28.4312 6.62 28.2246 6.6 28.0446 6.6C27.6579 6.6 27.3579 6.68333 27.1446 6.85C26.9312 7.01 26.8246 7.23667 26.8246 7.53C26.8246 7.81667 26.9479 8.07667 27.1946 8.31C27.4479 8.53667 27.7512 8.73333 28.1046 8.9C28.4646 9.06 28.8212 9.22667 29.1746 9.4C29.5346 9.57333 29.8379 9.8 30.0846 10.08C30.3379 10.3533 30.4646 10.6733 30.4646 11.04C30.4646 11.7067 30.2412 12.2233 29.7946 12.59C29.3479 12.95 28.7646 13.13 28.0446 13.13C27.6512 13.13 27.2246 13.07 26.7646 12.95C26.3112 12.8233 25.9346 12.6633 25.6346 12.47C25.6479 12.0233 25.6979 11.5067 25.7846 10.92C25.9312 10.9 26.1246 10.89 26.3646 10.89L26.5746 12.09C26.7212 12.15 26.9412 12.2067 27.2346 12.26C27.5346 12.3067 27.8046 12.33 28.0446 12.33ZM35.6946 6.69L35.6446 9.1H37.2246L37.3046 8.38C37.4913 8.38 37.6913 8.43667 37.9046 8.55V10.45L37.5546 10.48C37.4546 10.1933 37.388 9.95333 37.3546 9.76H35.6446C35.6313 10.34 35.618 11.1967 35.6046 12.33H37.8946L38.1346 11.39L38.7146 11.43C38.808 11.81 38.8546 12.1467 38.8546 12.44C38.8546 12.7267 38.848 12.9133 38.8346 13H33.9746L33.9446 12.65C34.238 12.5433 34.5213 12.4667 34.7946 12.42C34.7546 9.82 34.7213 7.88667 34.6946 6.62C34.548 6.60667 34.2546 6.52667 33.8146 6.38L33.8646 6H38.6846C38.698 6.08667 38.7046 6.22 38.7046 6.4C38.7046 6.76667 38.658 7.16333 38.5646 7.59C38.418 7.62333 38.2246 7.64 37.9846 7.64L37.7446 6.69H35.6946ZM45.8996 6.8C45.6862 6.73333 45.4029 6.7 45.0496 6.7H44.2196L44.1896 9.22L44.9496 9.21C45.4429 9.20333 45.8362 9.10333 46.1296 8.91C46.4229 8.71667 46.5696 8.35 46.5696 7.81C46.5696 7.26333 46.3462 6.92667 45.8996 6.8ZM44.1796 9.86L44.1496 12.33L44.9796 12.4C44.9796 12.5867 44.9229 12.7867 44.8096 13H42.5096L42.4796 12.65C42.7596 12.55 43.0462 12.4733 43.3396 12.42C43.2996 9.88667 43.2662 7.95333 43.2396 6.62C43.0529 6.59333 42.7596 6.51333 42.3596 6.38C42.3596 6.29333 42.3762 6.16667 42.4096 6H44.6596C45.8796 6 46.6729 6.15 47.0396 6.45C47.3996 6.73667 47.5796 7.18667 47.5796 7.8C47.5796 8.83333 47.0129 9.50333 45.8796 9.81L47.5896 12.34L48.4196 12.41C48.4196 12.59 48.3629 12.7867 48.2496 13H47.0196L44.9196 9.86H44.1796ZM54.0797 12.33C55.0731 12.33 55.5697 11.9267 55.5697 11.12C55.5697 10.7267 55.3264 10.3933 54.8397 10.12C54.6197 9.99333 54.3764 9.87333 54.1097 9.76C53.8497 9.64667 53.5864 9.52333 53.3197 9.39C53.0531 9.25667 52.8097 9.11333 52.5897 8.96C52.3764 8.80667 52.1997 8.61333 52.0597 8.38C51.9264 8.14667 51.8597 7.88333 51.8597 7.59C51.8597 7.11 52.0531 6.70333 52.4397 6.37C52.8331 6.03 53.3697 5.86 54.0497 5.86C54.7297 5.86 55.4464 6.06667 56.1997 6.48C56.1997 6.86 56.1531 7.33667 56.0597 7.91C55.9131 7.93 55.7197 7.94 55.4797 7.94L55.1797 6.78C55.0997 6.74 54.9397 6.7 54.6997 6.66C54.4664 6.62 54.2597 6.6 54.0797 6.6C53.6931 6.6 53.3931 6.68333 53.1797 6.85C52.9664 7.01 52.8597 7.23667 52.8597 7.53C52.8597 7.81667 52.9831 8.07667 53.2297 8.31C53.4831 8.53667 53.7864 8.73333 54.1397 8.9C54.4997 9.06 54.8564 9.22667 55.2097 9.4C55.5697 9.57333 55.8731 9.8 56.1197 10.08C56.3731 10.3533 56.4997 10.6733 56.4997 11.04C56.4997 11.7067 56.2764 12.2233 55.8297 12.59C55.3831 12.95 54.7997 13.13 54.0797 13.13C53.6864 13.13 53.2597 13.07 52.7997 12.95C52.3464 12.8233 51.9697 12.6633 51.6697 12.47C51.6831 12.0233 51.7331 11.5067 51.8197 10.92C51.9664 10.9 52.1597 10.89 52.3997 10.89L52.6097 12.09C52.7564 12.15 52.9764 12.2067 53.2697 12.26C53.5697 12.3067 53.8397 12.33 54.0797 12.33Z" fill="#622EF7"/>
</svg>
